# AST/ASF file generated using VICON BodyLanguage
# -----------------------------------------------
:version 1.10
:name VICON
:units
  mass 1.0
  length 0.45
  angle deg
:documentation
   .ast/.asf automatically generated from VICON data using
   VICON BodyBuilder and BodyLanguage model FoxedUp or BRILLIANT.MOD
:root
   order TX TY TZ RX RY RZ
   axis XYZ
   position 0 0 0  
   orientation 0 0 0 
:bonedata
  begin
     id 1 
     name lhipjoint
     direction 0.537252 -0.787203 0.302774 
     length 2.29576 
     axis 0 0 0  XYZ
  end
  begin
     id 2 
     name lfemur
     direction 0.34202 -0.939693 0  
     length 7.31114  
     axis 0 0 20  XYZ
    dof rx ry rz
    limits (-160.0 20.0)
           (-70.0 70.0)
           (-60.0 70.0)
  end
  begin
     id 3 
     name ltibia
     direction 0.34202 -0.939693 0   
     length 8.36008   
     axis 0 0 20   XYZ
    dof rx
    limits (-10.0 170.0)
  end
  begin
     id 4 
     name lfoot
     direction 0.0969116 -0.266263 0.959016   
     length 2.16704   
     axis -90 7.62852e-016 20   XYZ
    dof rx rz
    limits (-45.0 90.0)
           (-70.0 20.0)
  end
  begin
     id 5 
     name ltoes
     direction 1.53563e-011 -4.21779e-011 1   
     length 1.08338   
     axis -90 7.62852e-016 20   XYZ
    dof rx
    limits (-90.0 20.0)
  end
  begin
     id 6 
     name rhipjoint
     direction -0.588228 -0.754791 0.290308   
     length 2.39434  
     axis 0 0 0  XYZ 
  end
  begin
     id 7 
     name rfemur
     direction -0.34202 -0.939693 0   
     length 7.45207   
     axis 0 0 -20   XYZ
    dof rx ry rz
    limits (-160.0 20.0)
           (-70.0 70.0)
           (-70.0 60.0)
  end
  begin
     id 8 
     name rtibia
     direction -0.34202 -0.939693 0   
     length 8.03565   
     axis 0 0 -20   XYZ
    dof rx
    limits (-10.0 170.0)
 end
 begin
     id 9 
     name rfoot
     direction -0.107009 -0.294004 0.949795   
     length 2.11509  
     axis -90 -7.62852e-016 -20   XYZ
    dof rx rz
    limits (-45.0 90.0)
           (-20.0 70.0)
  end
  begin
     id 10 
     name rtoes
     direction -1.53533e-011 -4.22004e-011 1   
     length 1.05493   
     axis -90 -7.62852e-016 -20   XYZ
    dof rx
    limits (-90.0 20.0)
  end
  begin
     id 11 
     name lowerback
     direction -0.0115208 0.997969 -0.0626515   
     length 2.03153   
     axis 0 0 0   XYZ
    dof rx ry rz
    limits (-20.0 45.0)
           (-30.0 30.0)
           (-30.0 30.0)
  end
  begin
     id 12 
     name upperback
     direction -0.00423475 0.999974 -0.00583614   
     length 2.03619   
     axis 0 0 0   XYZ
    dof rx ry rz
    limits (-20.0 45.0)
           (-30.0 30.0)
           (-30.0 30.0)
  end
  begin
     id 13 
     name thorax
     direction 0.00289429 0.999728 0.0231573   
     length 2.03921   
     axis 0 0 0   XYZ
    dof rx ry rz
    limits (-20.0 45.0)
           (-30.0 30.0)
           (-30.0 30.0)
  end
  begin
     id 14 
     name lowerneck
     direction 0.0188995 0.987777 0.154721   
     length 1.78836   
     axis 0 0 0   XYZ
    dof rx ry rz
    limits (-20.0 45.0)
           (-30.0 30.0)
           (-30.0 30.0)
  end
  begin
     id 15 
     name upperneck
     direction -0.00612612 0.992995 -0.118   
     length 1.81789   
     axis 0 0 0   XYZ
    dof rx ry rz
    limits (-20.0 45.0)
           (-30.0 30.0)
           (-30.0 30.0)
  end
  begin
     id 16
     name head
     direction -0.00420226 0.998397 -0.0564482  
     length 1.82234  
     axis 0 0 0   XYZ
    dof rx ry rz
    limits (-20.0 45.0)
           (-30.0 30.0)
           (-30.0 30.0)
  end
  begin
     id 17 
     name lclavicle
     direction 0.916488 0.396539 0.0529676  
     length 3.51732  
     axis 0 0 0   XYZ
    dof ry rz
    limits (-20.0 10.0)
           (0.0 20.0)
  end
  begin
     id 18 
     name lhumerus
     direction 1 -4.4896e-011 8.36962e-028   
     length 5.45077   
     axis 180 -30 -90   XYZ
    dof rx ry rz
    limits (-60.0 90.0)
           (-90.0 90.0)
           (-90.0 90.0)
  end
  begin
     id 19
     name lradius
     direction 1 -4.48962e-011 3.01407e-027   
     length 3.05488   
     axis 180 -30 -90   XYZ
    dof rx
    limits (-10.0 170.0)
  end
  begin
     id 20
     name lwrist
     direction 1 -4.49002e-011 4.72961e-027   
     length 1.52744   
     axis -2.72261e-015 90 90   XYZ
    dof ry
    limits (-180.0 0.0)
 end
  begin
     id 21 
     name lhand
     direction 1 -4.4899e-011 9.45681e-027   
     length 0.638818   
     axis -6.0311e-015 90 90   XYZ
    dof rx rz
    limits (-90.0 90.0)
           (-45.0 45.0)
  end
  begin
     id 22 
     name lfingers
     direction 1 -4.48871e-011 1.88632e-026   
     length 0.515032   
     axis -1.20625e-014 90 90   XYZ
    dof rx
    limits (0.0 90.0)
  end
  begin
     id 23
     name lthumb
     direction 0.707107 -6.34964e-011 0.707107   
     length 0.739485   
     axis -90 45 6.32835e-014   XYZ
    dof rx rz
    limits (-45.0 45.0)
           (-45.0 45.0)
  end
  begin
     id 24 
     name rclavicle
     direction -0.949427 0.303202 0.0815894   
     length 3.76167  
     axis 0 0 0   XYZ 
    dof ry rz
    limits (-10.0 20.0)
           (-20.0 0.0)
  end
  begin
     id 25 
     name rhumerus
     direction -1 -4.48971e-011 -6.43969e-018  
     length 4.88702   
     axis 180 30 90   XYZ
    dof rx ry rz
    limits (-90.0 60.0)
           (-90.0 90.0)
           (-90.0 90.0)
  end
  begin
     id 26 
     name rradius
     direction -1 -4.48987e-011 5.46662e-027   
     length 3.22603   
     axis 180 30 90   XYZ
    dof rx
    limits (-10.0 170.0)
  end
  begin
     id 27 
     name rwrist
     direction -1 -4.48956e-011 4.72476e-027   
     length 1.61302   
     axis -2.72261e-015 -90 -90   XYZ
    dof ry
    limits (-180.0 0.0)
  end
  begin
     id 28
     name rhand
     direction -1 -4.4889e-011 9.43571e-027   
     length 0.716293   
     axis -6.0311e-015 -90 -90   XYZ
    dof rx rz
    limits (-90.0 90.0)
           (-45.0 45.0)
  end
  begin
     id 29
     name rfingers
     direction -1 -4.48887e-011 1.88701e-026   
     length 0.577494   
     axis -1.20625e-014 -90 -90   XYZ
    dof rx
    limits (0.0 90.0)
  end
  begin
     id 30
     name rthumb
     direction -0.707107 -6.34825e-011 0.707107   
     length 0.829169   
     axis -90 -45 -6.32835e-014   XYZ
    dof rx rz
    limits (-45.0 45.0)
           (-45.0 45.0)
  end
:hierarchy
  begin
    root lhipjoint rhipjoint lowerback
    lhipjoint lfemur
    lfemur ltibia
    ltibia lfoot
    lfoot ltoes
    rhipjoint rfemur
    rfemur rtibia
    rtibia rfoot
    rfoot rtoes
    lowerback upperback
    upperback thorax
    thorax lowerneck lclavicle rclavicle
    lowerneck upperneck
    upperneck head
    lclavicle lhumerus
    lhumerus lradius
    lradius lwrist
    lwrist lhand lthumb
    lhand lfingers
    rclavicle rhumerus
    rhumerus rradius
    rradius rwrist
    rwrist rhand rthumb
    rhand rfingers
  end

#!OML:ASF F:\VICON\USERDATA\INSTALL\rory3\rory3.ASF
:FULLY-SPECIFIED
:DEGREES
1689
root 1.35126 18.5982 0.4542 -221.502 87.4131 -237.825
lowerback -6.0676 -1.26527 -0.473364
upperback -0.987698 -1.62604 -0.361014
thorax 2.3856 -0.804945 -0.235722
lowerneck -22.626 1.12505 3.62879
upperneck 12.0254 0.643799 -1.33182
head 7.37864 0.354681 -0.942478
rclavicle 6.5102e-015 -8.29926e-015
rhumerus 23.9714 -14.0926 -46.4213
rradius 35.8786
rwrist 231.236
rhand -29.6306 -12.0335
rfingers 7.12502
rthumb -2.9607 -41.9927
lclavicle 6.5102e-015 -8.29926e-015
lhumerus 14.5826 2.74753 33.1473
lradius 23.8524
lwrist -16.9402
lhand 3.90341 19.8488
lfingers 7.12502
lthumb 29.3235 47.5565
rfemur -11.8356 -9.43481 17.0076
rtibia -3.73715e-014
rfoot -2.72351 7.41987
rtoes -7.39434
lfemur -20.4414 7.71294 -21.6924
ltibia 16.165
lfoot -10.8276 -3.92408
ltoes -26.8714
1690
root 1.35237 18.5971 0.450178 -221.173 87.3682 -237.475
lowerback -6.06944 -1.25512 -0.422215
upperback -1.01242 -1.61471 -0.389791
thorax 2.35892 -0.798591 -0.292708
lowerneck -22.5673 1.09555 3.64983
upperneck 12.0171 0.601109 -1.3393
head 7.36539 0.334605 -0.953768
rclavicle -7.23079e-015 4.27387e-015
rhumerus 24.4553 -14.4892 -47.2829
rradius 35.7937
rwrist 231.487
rhand -29.4063 -12.4287
rfingers 7.12502
rthumb -2.7441 -42.3908
lclavicle -7.23079e-015 4.27387e-015
lhumerus 15.0548 2.68688 33.5254
lradius 23.9306
lwrist -16.568
lhand 3.87259 20.5848
lfingers 7.12502
lthumb 29.294 48.2976
rfemur -11.8043 -9.48089 16.9753
rtibia 3.73715e-014
rfoot -2.74428 7.40657
rtoes -7.66317
lfemur -20.3914 7.75633 -21.7451
ltibia 16.1368
lfoot -10.8857 -3.97923
ltoes -27.1691
1691
root 1.35493 18.5972 0.448108 -220.119 87.3838 -236.425
lowerback -6.13794 -1.25056 -0.341971
upperback -1.02091 -1.61301 -0.392697
thorax 2.38611 -0.796934 -0.342045
lowerneck -22.5377 1.09717 3.72311
upperneck 12.0106 0.586349 -1.36402
head 7.35842 0.328672 -0.975591
rclavicle 1.91454e-014 5.46658e-016
rhumerus 24.9925 -14.8463 -48.1465
rradius 35.6871
rwrist 231.664
rhand -28.7859 -13.0931
rfingers 7.12502
rthumb -2.14495 -43.0621
lclavicle 1.91454e-014 5.46658e-016
lhumerus 15.2826 2.08055 33.6015
lradius 24.3738
lwrist -15.5886
lhand 3.67714 20.8606
lfingers 7.12502
lthumb 29.1074 48.6058
rfemur -11.7985 -9.50151 17.0196
rtibia -7.15625e-015
rfoot -2.72637 7.41363
rtoes -7.68272
lfemur -20.3679 7.74205 -21.6955
ltibia 16.1081
lfoot -10.959 -3.97991
ltoes -27.5286
1692
root 1.35653 18.5967 0.449744 -220.704 87.3452 -237.098
lowerback -6.25461 -1.24971 -0.405337
upperback -1.0849 -1.60529 -0.402826
thorax 2.38683 -0.792807 -0.318158
lowerneck -22.5129 1.09809 3.74867
upperneck 12.0962 0.582474 -1.3769
head 7.38297 0.327275 -0.984751
rclavicle -2.55314e-014 -1.5207e-014
rhumerus 25.378 -14.9636 -48.8123
rradius 35.6496
rwrist 231.554
rhand -28.6822 -13.0546
rfingers 7.12502
rthumb -2.04479 -43.0246
lclavicle -2.55314e-014 -1.5207e-014
lhumerus 15.4133 1.03367 33.5069
lradius 25.0605
lwrist -14.0623
lhand 3.70154 20.9685
lfingers 7.12502
lthumb 29.1307 48.7097
rfemur -11.8865 -9.51529 16.9859
rtibia 2.38542e-015
rfoot -2.75431 7.41974
rtoes -8.13955
lfemur -20.4476 7.90705 -21.7975
ltibia 16.0557
lfoot -10.9029 -4.14169
ltoes -27.5928
1693
root 1.35755 18.5955 0.448743 -220.902 87.3229 -237.31
lowerback -6.31614 -1.24433 -0.427324
upperback -1.10514 -1.59591 -0.395431
thorax 2.40115 -0.78804 -0.29863
lowerneck -22.5632 1.10343 3.69132
upperneck 12.2457 0.596245 -1.32935
head 7.44095 0.336619 -0.95839
rclavicle 4.06266e-015 4.77083e-015
rhumerus 25.8235 -15.1534 -49.5005
rradius 35.5894
rwrist 231.523
rhand -29.0219 -12.6015
rfingers 7.12502
rthumb -2.37286 -42.568
lclavicle 4.06266e-015 4.77083e-015
lhumerus 15.7349 0.754624 33.8153
lradius 25.4006
lwrist -13.3393
lhand 3.75529 21.1849
lfingers 7.12502
lthumb 29.182 48.9172
rfemur -11.8918 -9.5283 16.9594
rtibia 4.6118e-014
rfoot -2.78929 7.41691
rtoes -8.0397
lfemur -20.4354 8.01228 -21.8633
ltibia 15.9689
lfoot -10.948 -4.21306
ltoes -28.0425
1694
root 1.35712 18.5951 0.446134 -218.848 87.0987 -235.218
lowerback -6.30266 -1.32648 -0.517929
upperback -1.11157 -1.69944 -0.388632
thorax 2.38973 -0.840285 -0.249012
lowerneck -22.5084 1.10052 3.65867
upperneck 12.2385 0.60581 -1.3377
head 7.42984 0.338694 -0.954782
rclavicle -2.99668e-014 -2.21148e-014
rhumerus 26.3458 -15.2782 -50.2347
rradius 35.547
rwrist 231.847
rhand -29.3399 -12.3653
rfingers 7.12502
rthumb -2.68002 -42.3282
lclavicle -2.99668e-014 -2.21148e-014
lhumerus 16.1599 1.13355 34.4651
lradius 25.2884
lwrist -13.5118
lhand 3.4036 20.8403
lfingers 7.12502
lthumb 28.8462 48.6304
rfemur -11.8111 -9.76793 16.8701
rtibia 3.97569e-015
rfoot -2.85245 7.41971
rtoes -7.99305
lfemur -20.3831 7.94512 -21.9773
ltibia 15.8964
lfoot -10.9898 -4.38396
ltoes -28.5429
1695
root 1.35712 18.5948 0.442854 -217.209 86.8625 -233.523
lowerback -6.26111 -1.43026 -0.587864
upperback -1.12412 -1.83304 -0.397821
thorax 2.35557 -0.907293 -0.228991
lowerneck -22.4125 1.13316 3.69093
upperneck 12.1693 0.650845 -1.37784
head 7.39267 0.357426 -0.967546
rclavicle 8.08805e-015 -6.85807e-015
rhumerus 26.8178 -15.2058 -50.8998
rradius 35.6119
rwrist 231.954
rhand -29.6116 -12.2671
rfingers 7.12502
rthumb -2.94237 -42.2265
lclavicle 8.08805e-015 -6.85807e-015
lhumerus 16.5038 1.34951 34.9891
lradius 25.2034
lwrist -13.3459
lhand 3.0031 20.4151
lfingers 7.12502
lthumb 28.4635 48.2698
rfemur -11.7008 -10.0125 16.759
rtibia -5.00937e-014
rfoot -2.85519 7.44983
rtoes -7.82817
lfemur -20.3293 7.8001 -22.0792
ltibia 15.8942
lfoot -10.9952 -4.51122
ltoes -28.2042
1696
root 1.35716 18.5949 0.439105 -218.255 87.0243 -234.546
lowerback -6.24547 -1.36943 -0.476306
upperback -1.14698 -1.75989 -0.384856
thorax 2.32024 -0.869993 -0.271352
lowerneck -22.4041 1.13792 3.71202
upperneck 12.1603 0.653621 -1.39176
head 7.38853 0.358349 -0.975191
rclavicle 2.53078e-014 4.77083e-015
rhumerus 27.1999 -15.1942 -51.5067
rradius 35.6559
rwrist 231.809
rhand -29.8413 -12.1472
rfingers 7.12502
rthumb -3.16415 -42.1035
lclavicle 2.53078e-014 4.77083e-015
lhumerus 16.9527 1.56687 35.5265
lradius 25.1296
lwrist -13.0398
lhand 3.06152 20.2674
lfingers 7.12502
lthumb 28.5193 48.1128
rfemur -11.7074 -9.85124 16.8066
rtibia -2.62396e-014
rfoot -2.78996 7.43721
rtoes -7.68161
lfemur -20.2822 7.827 -22.0045
ltibia 15.88
lfoot -11.0196 -4.34726
ltoes -28.3933
1697
root 1.35664 18.595 0.428667 -219.334 87.1674 -235.633
lowerback -6.2845 -1.29341 -0.272583
upperback -1.16347 -1.67085 -0.412914
thorax 2.31837 -0.823947 -0.407783
lowerneck -22.4398 1.14177 3.78295
upperneck 12.2043 0.642656 -1.43187
head 7.40909 0.352776 -1.00139
rclavicle 2.14936e-015 -1.26228e-014
rhumerus 27.5834 -15.2562 -52.1298
rradius 35.6921
rwrist 231.634
rhand -30.0192 -12.1358
rfingers 7.12502
rthumb -3.33599 -42.0894
lclavicle 2.14936e-015 -1.26228e-014
lhumerus 17.49 2.11848 36.2388
lradius 25.0881
lwrist -13.3526
lhand 3.34167 20.1945
lfingers 7.12502
lthumb 28.787 47.9947
rfemur -11.7593 -9.71403 16.8237
rtibia -2.3059e-014
rfoot -2.75334 7.40356
rtoes -7.55986
lfemur -20.2598 7.75869 -21.9507
ltibia 15.8655
lfoot -11.0112 -4.13086
ltoes -28.1773
1698
root 1.36521 18.5948 0.416958 -219.154 87.0182 -235.4
lowerback -6.3628 -1.32686 -0.221146
upperback -1.16734 -1.71651 -0.463501
thorax 2.35479 -0.845908 -0.494284
lowerneck -22.4272 1.14601 3.80932
upperneck 12.3041 0.643691 -1.45068
head 7.44051 0.353259 -1.01208
rclavicle -3.16937e-014 -3.10104e-014
rhumerus 28.0584 -15.3756 -52.9168
rradius 35.6233
rwrist 231.705
rhand -29.9605 -12.2222
rfingers 7.12502
rthumb -3.27936 -42.1767
lclavicle -3.16937e-014 -3.10104e-014
lhumerus 18.0146 3.00124 37.187
lradius 24.9261
lwrist -14.0745
lhand 3.62976 20.0157
lfingers 7.12502
lthumb 29.0622 47.7688
rfemur -11.6514 -9.85357 16.6559
rtibia 4.21423e-014
rfoot -2.79029 7.41671
rtoes -7.55407
lfemur -20.18 7.789 -22.1157
ltibia 15.9022
lfoot -11.0514 -4.29733
ltoes -28.1731
1699
root 1.37495 18.5948 0.413506 -219.226 86.9189 -235.484
lowerback -6.53221 -1.34856 -0.266402
upperback -1.17618 -1.74001 -0.476347
thorax 2.44099 -0.857319 -0.488381
lowerneck -22.3246 1.12808 3.76806
upperneck 12.2918 0.629754 -1.41453
head 7.41913 0.348307 -0.995245
rclavicle -1.01504e-014 6.06293e-015
rhumerus 28.4579 -15.3998 -53.5609
rradius 35.5996
rwrist 231.421
rhand -29.8207 -11.729
rfingers 7.12502
rthumb -3.14432 -41.6856
lclavicle -1.01504e-014 6.06293e-015
lhumerus 18.4446 3.2665 37.8729
lradius 24.8974
lwrist -13.4464
lhand 3.56523 20.4743
lfingers 7.12502
lthumb 29.0005 48.238
rfemur -11.5987 -9.93935 16.5512
rtibia 5.56597e-015
rfoot -2.81187 7.45102
rtoes -7.37207
lfemur -20.1784 7.91342 -22.2463
ltibia 15.95
lfoot -11.1448 -4.52751
ltoes -28.3498
1700
root 1.36716 18.5956 0.42296 -218.478 87.0039 -234.744
lowerback -6.46019 -1.33286 -0.325696
upperback -1.22752 -1.71697 -0.415243
thorax 2.35171 -0.846383 -0.387666
lowerneck -22.2157 1.12053 3.77701
upperneck 12.2535 0.623284 -1.4264
head 7.38864 0.344399 -1.00144
rclavicle -1.47846e-014 5.86415e-015
rhumerus 28.7677 -15.3298 -54.1041
rradius 35.5802
rwrist 230.861
rhand -29.641 -11.0842
rfingers 7.12502
rthumb -2.97077 -41.0432
lclavicle -1.47846e-014 5.86415e-015
lhumerus 18.916 3.49418 38.5493
lradius 24.81
lwrist -12.8874
lhand 3.28107 20.7097
lfingers 7.12502
lthumb 28.7291 48.5197
rfemur -11.6217 -9.88288 16.6951
rtibia 1.59028e-014
rfoot -2.81879 7.44947
rtoes -7.69415
lfemur -20.2474 8.00308 -22.1272
ltibia 15.966
lfoot -11.1144 -4.54939
ltoes -28.3415
1701
root 1.359 18.5957 0.425639 -217.517 87.131 -233.754
lowerback -6.32813 -1.30504 -0.263625
upperback -1.26799 -1.68671 -0.357237
thorax 2.23645 -0.831235 -0.356305
lowerneck -22.1859 1.12187 3.80719
upperneck 12.2918 0.625562 -1.47573
head 7.39687 0.342253 -1.02257
rclavicle 1.37161e-014 6.4605e-015
rhumerus 29.1406 -15.2084 -54.6377
rradius 35.5716
rwrist 230.531
rhand -29.519 -10.7531
rfingers 7.12502
rthumb -2.85292 -40.7138
lclavicle 1.37161e-014 6.4605e-015
lhumerus 19.4054 4.06775 39.4007
lradius 24.7105
lwrist -13.1178
lhand 3.16341 20.8094
lfingers 7.12502
lthumb 28.6167 48.6384
rfemur -11.6376 -9.80042 16.8532
rtibia -2.38542e-015
rfoot -2.78072 7.41288
rtoes -7.81896
lfemur -20.2664 7.89162 -21.9377
ltibia 16.0001
lfoot -11.0534 -4.37882
ltoes -28.1699
1702
root 1.35994 18.5954 0.421436 -218.495 87.1939 -234.694
lowerback -6.3242 -1.27811 -0.232725
upperback -1.26533 -1.65316 -0.352214
thorax 2.23638 -0.814377 -0.365672
lowerneck -22.2268 1.13495 3.86109
upperneck 12.3717 0.636606 -1.54189
head 7.43083 0.3439 -1.0521
rclavicle 1.06847e-014 6.75868e-015
rhumerus 29.6557 -15.2783 -55.4253
rradius 35.5608
rwrist 230.887
rhand -29.2169 -10.2348
rfingers 7.12502
rthumb -2.56118 -40.1992
lclavicle 1.06847e-014 6.75868e-015
lhumerus 19.8388 4.52924 40.1584
lradius 24.6865
lwrist -13.2051
lhand 3.23083 20.9195
lfingers 7.12502
lthumb 28.6811 48.7376
rfemur -11.6119 -9.72259 16.8399
rtibia -1.35174e-014
rfoot -2.77604 7.42428
rtoes -7.81922
lfemur -20.2516 7.92769 -21.9416
ltibia 16.0525
lfoot -11.0728 -4.31034
ltoes -28.1901
